<svg width="22" height="22" viewBox="0 0 22 22" fill="none" xmlns="http://www.w3.org/2000/svg">
<path fill-rule="evenodd" clip-rule="evenodd" d="M4 0C2.93913 0 1.92172 0.421427 1.17157 1.17157C0.421427 1.92172 0 2.93913 0 4V18C0 19.0609 0.421427 20.0783 1.17157 20.8284C1.92172 21.5786 2.93913 22 4 22H18C19.0609 22 20.0783 21.5786 20.8284 20.8284C21.5786 20.0783 22 19.0609 22 18V4C22 2.93913 21.5786 1.92172 20.8284 1.17157C20.0783 0.421427 19.0609 0 18 0H4ZM6.068 4H7.023V8.295H6.068V4ZM4 5.91C3.99985 5.54419 4.10475 5.18603 4.30224 4.87811C4.49972 4.57019 4.78147 4.32545 5.114 4.173V8.295H4V5.91ZM4 9.25V16.09C4 16.5966 4.20123 17.0824 4.55943 17.4406C4.91762 17.7988 5.40344 18 5.91 18H16.09C16.5966 18 17.0824 17.7988 17.4406 17.4406C17.7988 17.0824 18 16.5966 18 16.09V9.25H14.583C14.9456 9.87878 15.1363 10.5919 15.136 11.3177C15.1357 12.0436 14.9444 12.7565 14.5813 13.385C14.2182 14.0135 13.6962 14.5354 13.0675 14.8982C12.4389 15.2611 11.7258 15.4521 11 15.4521C10.2742 15.4521 9.56112 15.2611 8.93248 14.8982C8.30385 14.5354 7.78176 14.0135 7.41868 13.385C7.05559 12.7565 6.8643 12.0436 6.864 11.3177C6.86371 10.5919 7.05443 9.87878 7.417 9.25H4ZM18 5.91V8.295H13.824C13.3053 7.81064 12.6707 7.46776 11.9813 7.2993C11.2918 7.13084 10.5707 7.14244 9.887 7.333V4H16.091C16.5974 4.00027 17.0829 4.20161 17.4409 4.55978C17.7989 4.91795 18 5.40361 18 5.91ZM14.5 5.273C14.4157 5.273 14.3348 5.3065 14.2751 5.36614C14.2155 5.42578 14.182 5.50666 14.182 5.591V6.864C14.182 7.039 14.324 7.182 14.5 7.182H15.773C15.8148 7.182 15.8561 7.17378 15.8947 7.15779C15.9333 7.14181 15.9683 7.11839 15.9979 7.08886C16.0274 7.05933 16.0508 7.02427 16.0668 6.98569C16.0828 6.94711 16.091 6.90576 16.091 6.864V5.59C16.091 5.54824 16.0828 5.50689 16.0668 5.46831C16.0508 5.42973 16.0274 5.39467 15.9979 5.36514C15.9683 5.33561 15.9333 5.31219 15.8947 5.29621C15.8561 5.28023 15.8148 5.272 15.773 5.272L14.5 5.273ZM8.932 4H7.977V8.295H8.177C8.405 8.081 8.659 7.893 8.932 7.735V4ZM11 8.455C10.6195 8.44789 10.2413 8.5167 9.88767 8.65741C9.53403 8.79812 9.21198 9.00791 8.94034 9.27451C8.66871 9.54112 8.45294 9.85919 8.30564 10.2101C8.15835 10.5611 8.08249 10.9379 8.08249 11.3185C8.08249 11.6991 8.15835 12.0759 8.30564 12.4269C8.45294 12.7778 8.66871 13.0959 8.94034 13.3625C9.21198 13.6291 9.53403 13.8389 9.88767 13.9796C10.2413 14.1203 10.6195 14.1891 11 14.182C11.7502 14.168 12.4649 13.8601 12.9905 13.3246C13.516 12.7892 13.8105 12.0688 13.8105 11.3185C13.8105 10.5682 13.516 9.84784 12.9905 9.31236C12.4649 8.77687 11.7502 8.46902 11 8.455Z" fill="black"/>
</svg>
