<svg width="24" height="24" viewBox="0 0 24 24" fill="none" xmlns="http://www.w3.org/2000/svg">
<path fill-rule="evenodd" clip-rule="evenodd" d="M22 8H2V22H22V8ZM0 6V24H24V6H0Z" fill="black"/>
<path fill-rule="evenodd" clip-rule="evenodd" d="M6.91148 2.98429C6.06497 3.48817 6 3.9546 6 4V10H4V4C4 3.0454 4.63503 2.01183 5.88852 1.26571C7.14807 0.515975 9.09676 0 12 0C14.9032 0 16.8519 0.515975 18.1115 1.26571C19.365 2.01183 20 3.0454 20 4V10H18V4C18 3.9546 17.935 3.48817 17.0885 2.98429C16.2481 2.48403 14.6968 2 12 2C9.30324 2 7.75193 2.48403 6.91148 2.98429Z" fill="black"/>
</svg>
