<svg width="24" height="24" viewBox="0 0 24 24" fill="none" xmlns="http://www.w3.org/2000/svg">
<path fill-rule="evenodd" clip-rule="evenodd" d="M10.1891 0.0233597C8.4234 0.169112 6.81408 0.679376 5.35641 1.55562C4.52757 2.05386 3.92539 2.52565 3.22756 3.22345C2.77932 3.6717 2.53807 3.9477 2.1983 4.40096C0.268221 6.97566 -0.436299 10.2564 0.265605 13.401C0.898797 16.2376 2.64734 18.7228 5.11308 20.2907C5.78083 20.7153 6.67668 21.1457 7.44108 21.409C9.24897 22.0318 11.294 22.1625 13.1915 21.7766C14.8731 21.4346 16.4213 20.7189 17.7971 19.6479L18.0371 19.4611L20.1611 21.585L22.2852 23.709L22.9991 22.995L23.7131 22.2811L21.5891 20.157L19.4652 18.0329L19.652 17.793C21.5862 15.3085 22.3641 12.2227 21.84 9.11384C21.6091 7.74438 21.0692 6.34098 20.3084 5.13296C19.1817 3.34371 17.4911 1.86039 15.6011 1.0027C14.0927 0.318224 12.5636 -0.0103363 10.9356 0.000247665C10.657 0.00207167 10.3211 0.0124637 10.1891 0.0233597ZM10.5793 2.0155C7.84204 2.13337 5.2858 3.52731 3.67308 5.78161C2.83012 6.95989 2.26848 8.39422 2.07775 9.85587C1.99992 10.4522 1.99404 11.4436 2.06479 12.033C2.29461 13.9469 3.11628 15.7291 4.40397 17.1066C5.88756 18.6935 7.76635 19.6511 9.94908 19.9328C10.3669 19.9867 11.5594 19.9943 11.9531 19.9456C13.0515 19.8097 13.9563 19.5502 14.8931 19.1024C16.7356 18.2216 18.2258 16.7315 19.1065 14.889C19.5543 13.9522 19.8138 13.0474 19.9497 11.949C19.9985 11.5553 19.9908 10.3628 19.9369 9.94496C19.6045 7.36959 18.2909 5.1547 16.2131 3.6662C14.8577 2.69523 13.1186 2.08664 11.5211 2.02422C11.3429 2.01723 11.1485 2.00854 11.0891 2.00487C11.0297 2.00122 10.8003 2.006 10.5793 2.0155Z" fill="black"/>
</svg>
