<svg width="22" height="22" viewBox="0 0 22 22" fill="none" xmlns="http://www.w3.org/2000/svg">
<path fill-rule="evenodd" clip-rule="evenodd" d="M4 0C2.93913 0 1.92172 0.421427 1.17157 1.17157C0.421427 1.92172 0 2.93913 0 4V18C0 19.0609 0.421427 20.0783 1.17157 20.8284C1.92172 21.5786 2.93913 22 4 22H18C19.0609 22 20.0783 21.5786 20.8284 20.8284C21.5786 20.0783 22 19.0609 22 18V4C22 2.93913 21.5786 1.92172 20.8284 1.17157C20.0783 0.421427 19.0609 0 18 0H4ZM11.028 3C7.53 3 5.063 5.712 4.79 8.416C4.638 9.921 4.936 11.267 5.552 12.168C5.71537 12.4067 5.96688 12.5707 6.25118 12.624C6.53549 12.6772 6.82931 12.6154 7.068 12.452C7.30669 12.2886 7.47071 12.0371 7.52397 11.7528C7.57723 11.4685 7.51537 11.1747 7.352 10.936C7.1 10.566 6.845 9.772 6.96 8.636C7.127 6.986 8.71 5.182 11.028 5.182C12.847 5.182 13.838 5.838 14.384 6.592C14.964 7.395 15.151 8.466 15.036 9.415C14.917 10.399 14.617 11.395 14.137 12.083C13.691 12.722 13.143 13.047 12.36 12.969C11.733 12.906 11.444 12.565 11.264 12.139C11.163 11.8932 11.0993 11.6336 11.075 11.369C11.285 10.644 11.456 9.968 11.545 9.412C11.605 9.052 11.645 8.654 11.599 8.299C11.565 8.024 11.393 7.214 10.536 7.025C10.2191 6.95188 9.88833 6.9668 9.57935 7.06815C9.27037 7.1695 8.99498 7.35341 8.783 7.6C8.359 8.084 8.206 8.737 8.206 9.395C8.206 9.717 8.288 10.036 8.362 10.273C8.442 10.528 8.544 10.78 8.638 10.993C8.696 11.123 8.752 11.243 8.804 11.349L8.762 11.484C8.457 12.468 8.086 13.554 7.72 14.618L7.572 15.048C7.259 15.953 6.957 16.83 6.717 17.575C6.62842 17.8504 6.65288 18.1498 6.785 18.4072C6.91712 18.6645 7.14607 18.8589 7.4215 18.9475C7.69693 19.0361 7.99626 19.0116 8.25366 18.8795C8.51105 18.7474 8.70542 18.5184 8.794 18.243C9.026 17.522 9.32 16.67 9.634 15.762L9.783 15.328C9.903 14.981 10.023 14.628 10.143 14.275C10.619 14.712 11.268 15.052 12.143 15.14C13.88 15.314 15.134 14.467 15.927 13.33C16.686 12.242 17.06 10.858 17.202 9.676C17.366 8.317 17.126 6.661 16.152 5.313C15.142 3.917 13.449 3 11.028 3Z" fill="black"/>
</svg>
