<svg width="26" height="24" viewBox="0 0 26 24" fill="none" xmlns="http://www.w3.org/2000/svg">
<path fill-rule="evenodd" clip-rule="evenodd" d="M11.4128 2.09293C10.1589 0.752855 8.45846 0 6.68536 0C2.99314 0 0 3.19916 0 7.14549C0 9.04055 0.704343 10.8581 1.95809 12.1982L12.9999 24L24.042 12.1981C25.2956 10.8581 26 9.04067 26 7.14561C26 3.19924 23.0069 0 19.3147 0C17.5416 0 15.8412 0.752791 14.5875 2.09277L12.9999 3.78947L11.4128 2.09293ZM12.9999 21.0726L22.5815 10.8316C23.4762 9.8754 24 8.55159 24 7.14561C24 4.17628 21.779 2 19.3147 2C18.1166 2 16.9384 2.50745 16.0479 3.45917L12.9998 6.71686L9.95231 3.45935C9.06172 2.50748 7.88343 2 6.68536 2C4.22102 2 2 4.17625 2 7.14549C2 8.55148 2.52381 9.87542 3.41855 10.8318L12.9999 21.0726Z" fill="black"/>
</svg>
