<svg width="22" height="22" viewBox="0 0 22 22" fill="none" xmlns="http://www.w3.org/2000/svg">
<g clip-path="url(#clip0_528_1662)">
<path d="M18 0H4C1.79086 0 0 1.79086 0 4V18C0 20.2091 1.79086 22 4 22H18C20.2091 22 22 20.2091 22 18V4C22 1.79086 20.2091 0 18 0Z" fill="black"/>
<path d="M10.92 17.2401C10.37 17.2401 9.84004 17.2001 9.32004 17.1301C8.80004 17.4901 5.80004 19.5801 5.51004 19.6201C5.51004 19.6201 5.39004 19.6601 5.30004 19.6101C5.21004 19.5601 5.22004 19.4001 5.22004 19.4001C5.25004 19.2001 6.00004 16.6401 6.14004 16.1701C3.60004 14.9301 1.92004 12.7201 1.92004 10.2101C1.92004 6.33005 5.95004 3.18005 10.93 3.18005C15.91 3.18005 19.94 6.33005 19.94 10.2101C19.94 14.0901 15.91 17.2401 10.93 17.2401H10.92Z" fill="white"/>
<path d="M17.47 11.75C17.55 11.86 17.59 12 17.57 12.13C17.55 12.26 17.48 12.39 17.37 12.47C17.28 12.54 17.17 12.57 17.06 12.57C16.9 12.57 16.74 12.49 16.64 12.37L15.42 10.77L15.24 10.95V12.07C15.24 12.35 15.01 12.58 14.72 12.58C14.43 12.58 14.2 12.35 14.2 12.07V8.55002C14.21 8.27002 14.45 8.05002 14.74 8.06002C15.01 8.07002 15.23 8.29002 15.24 8.55002V9.66002L16.69 8.22002C16.77 8.15002 16.87 8.10002 16.98 8.10002C17.11 8.10002 17.24 8.16002 17.34 8.25002C17.43 8.34002 17.48 8.45002 17.49 8.58002C17.49 8.70002 17.46 8.81002 17.38 8.89002L16.2 10.06L17.48 11.74L17.47 11.75Z" fill="black"/>
<path d="M14 12.05C14 12.32 13.77 12.53 13.5 12.52H11.83C11.56 12.52 11.34 12.31 11.33 12.05V8.56005C11.33 8.28005 11.57 8.05005 11.86 8.05005C12.15 8.05005 12.39 8.28005 12.39 8.56005V11.58H13.49C13.76 11.58 13.99 11.79 13.99 12.05H14Z" fill="black"/>
<path d="M7.31003 9.05004H6.50003V12.11C6.50003 12.38 6.27003 12.6 5.98003 12.6C5.69003 12.6 5.46003 12.38 5.46003 12.11V9.05004H4.65003C4.37003 9.03004 4.16003 8.79004 4.18003 8.51004C4.20003 8.26004 4.40003 8.06004 4.65003 8.04004H7.31003C7.59003 8.06004 7.80003 8.30004 7.78003 8.58004C7.76003 8.83004 7.56003 9.03004 7.31003 9.05004Z" fill="black"/>
<path d="M17.47 11.75C17.55 11.86 17.59 12 17.57 12.13C17.55 12.26 17.48 12.39 17.37 12.47C17.28 12.54 17.17 12.57 17.06 12.57C16.9 12.57 16.74 12.49 16.64 12.37L15.42 10.77L15.24 10.95V12.07C15.24 12.35 15.01 12.58 14.72 12.58C14.43 12.58 14.2 12.35 14.2 12.07V8.55002C14.21 8.27002 14.45 8.05002 14.74 8.06002C15.01 8.07002 15.23 8.29002 15.24 8.55002V9.66002L16.69 8.22002C16.77 8.15002 16.87 8.10002 16.98 8.10002C17.11 8.10002 17.24 8.16002 17.34 8.25002C17.43 8.34002 17.48 8.45002 17.49 8.58002C17.49 8.70002 17.46 8.81002 17.38 8.89002L16.2 10.06L17.48 11.74L17.47 11.75Z" fill="black"/>
<path d="M10.99 11.78L9.74999 8.54003C9.65999 8.29003 9.39999 8.04003 9.05999 8.03003C8.71999 8.03003 8.45999 8.29003 8.36999 8.54003L7.12999 11.78C6.96999 12.26 7.10999 12.45 7.24999 12.51C7.34999 12.56 7.46999 12.58 7.57999 12.58C7.79999 12.58 7.95999 12.49 8.00999 12.35L8.26999 11.68H9.85999L10.12 12.35C10.17 12.49 10.34 12.58 10.55 12.58C10.66 12.58 10.78 12.56 10.88 12.51C11.02 12.45 11.16 12.26 11 11.78H10.99ZM8.53999 10.78L9.05999 9.32003L9.57999 10.78H8.53999Z" fill="black"/>
<path d="M14 12.05C14 12.32 13.77 12.53 13.5 12.52H11.83C11.56 12.52 11.34 12.31 11.33 12.05V8.56005C11.33 8.28005 11.57 8.05005 11.86 8.05005C12.15 8.05005 12.39 8.28005 12.39 8.56005V11.58H13.49C13.76 11.58 13.99 11.79 13.99 12.05H14Z" fill="black"/>
</g>
<defs>
<clipPath id="clip0_528_1662">
<rect width="22" height="22" fill="white"/>
</clipPath>
</defs>
</svg>
