<svg width="22" height="22" viewBox="0 0 22 22" fill="none" xmlns="http://www.w3.org/2000/svg">
<path fill-rule="evenodd" clip-rule="evenodd" d="M4 0C2.93913 0 1.92172 0.421427 1.17157 1.17157C0.421427 1.92172 0 2.93913 0 4V18C0 19.0609 0.421427 20.0783 1.17157 20.8284C1.92172 21.5786 2.93913 22 4 22H18C19.0609 22 20.0783 21.5786 20.8284 20.8284C21.5786 20.0783 22 19.0609 22 18V4C22 2.93913 21.5786 1.92172 20.8284 1.17157C20.0783 0.421427 19.0609 0 18 0H4ZM8.682 6.273C8.682 5.40512 9.0267 4.57277 9.64029 3.95899C10.2539 3.34522 11.0861 3.00027 11.954 3H14.864C15.064 3 15.227 3.163 15.227 3.364V6.273C15.227 6.473 15.064 6.636 14.864 6.636H13.409C13.2658 6.636 13.124 6.66423 12.9916 6.71907C12.8593 6.77391 12.7391 6.85429 12.6379 6.95561C12.5367 7.05693 12.4564 7.17721 12.4017 7.30957C12.347 7.44193 12.3189 7.58378 12.319 7.727V8.818H14.864C14.9192 8.81818 14.9736 8.83091 15.0232 8.85523C15.0727 8.87954 15.1161 8.9148 15.15 8.95835C15.1839 9.00189 15.2075 9.05258 15.2189 9.10657C15.2303 9.16056 15.2293 9.21645 15.216 9.27L14.489 12.18C14.4691 12.2585 14.4236 12.3281 14.3597 12.3778C14.2957 12.4274 14.217 12.4542 14.136 12.454H12.318V18.636C12.318 18.7325 12.2796 18.8251 12.2114 18.8934C12.1431 18.9617 12.0505 19 11.954 19H9.045C8.94864 18.9997 8.85631 18.9613 8.78826 18.893C8.72021 18.8248 8.682 18.7324 8.682 18.636V12.455H6.864C6.76746 12.455 6.67488 12.4166 6.60661 12.3484C6.53835 12.2801 6.5 12.1875 6.5 12.091V9.181C6.5 8.981 6.663 8.818 6.864 8.818H8.682V6.273Z" fill="black"/>
</svg>
