<svg width="30" height="29" viewBox="0 0 30 29" fill="none" xmlns="http://www.w3.org/2000/svg">
<path fill-rule="evenodd" clip-rule="evenodd" d="M12 8C13.6569 8 15 6.65685 15 5C15 3.34315 13.6569 2 12 2C10.3431 2 9 3.34315 9 5C9 6.65685 10.3431 8 12 8ZM12 10C14.7614 10 17 7.76142 17 5C17 2.23858 14.7614 0 12 0C9.23858 0 7 2.23858 7 5C7 7.76142 9.23858 10 12 10Z" fill="black"/>
<path fill-rule="evenodd" clip-rule="evenodd" d="M2 17.3245V22H22V17.1313C21.5138 16.3641 19.2692 14 12.5217 14C5.93103 14 2.90103 16.2872 2 17.3245ZM0 16.6957V24H24V16.6957C23.4783 15.1304 20.4522 12 12.5217 12C4.5913 12 0.869565 15.1304 0 16.6957Z" fill="black"/>
<path d="M30 21C30 25.4183 26.4183 29 22 29C17.5817 29 14 25.4183 14 21C14 16.5817 17.5817 13 22 13C26.4183 13 30 16.5817 30 21Z" fill="white"/>
<path fill-rule="evenodd" clip-rule="evenodd" d="M29.8477 22.5613L27.8858 22.1732C27.9605 21.7953 28 21.4033 28 21C28 20.5967 27.9605 20.2047 27.8858 19.8268L29.8477 19.4387C29.9476 19.9437 30 20.4657 30 21C30 21.5343 29.9476 22.0563 29.8477 22.5613ZM28.6525 16.5551L26.9906 17.6677C26.552 17.0125 25.9875 16.448 25.3323 16.0094L26.4449 14.3475C27.3173 14.9315 28.0685 15.6827 28.6525 16.5551ZM23.5613 13.1523L23.1732 15.1142C22.7953 15.0395 22.4033 15 22 15C21.5967 15 21.2047 15.0395 20.8268 15.1142L20.4387 13.1523C20.9437 13.0524 21.4657 13 22 13C22.5343 13 23.0563 13.0524 23.5613 13.1523ZM17.5551 14.3475L18.6677 16.0094C18.0125 16.448 17.448 17.0125 17.0094 17.6677L15.3475 16.5551C15.9315 15.6827 16.6827 14.9315 17.5551 14.3475ZM14.1523 19.4387C14.0524 19.9437 14 20.4657 14 21C14 21.5343 14.0524 22.0563 14.1523 22.5613L16.1142 22.1732C16.0395 21.7953 16 21.4033 16 21C16 20.5967 16.0395 20.2047 16.1142 19.8268L14.1523 19.4387ZM15.3475 25.4449L17.0094 24.3323C17.448 24.9875 18.0125 25.552 18.6677 25.9906L17.5551 27.6525C16.6827 27.0685 15.9315 26.3173 15.3475 25.4449ZM20.4387 28.8477L20.8268 26.8858C21.2047 26.9605 21.5967 27 22 27C22.4033 27 22.7953 26.9605 23.1732 26.8858L23.5613 28.8477C23.0563 28.9476 22.5343 29 22 29C21.4657 29 20.9437 28.9476 20.4387 28.8477ZM26.4449 27.6525L25.3323 25.9906C25.9875 25.552 26.552 24.9875 26.9906 24.3323L28.6525 25.4449C28.0685 26.3173 27.3173 27.0685 26.4449 27.6525Z" fill="black"/>
</svg>
